<svg width="200" height="200" viewBox="0 0 200 200" fill="none" xmlns="http://www.w3.org/2000/svg">
<path d="M64.6504 83.0822L65.4082 80.9917C67.0073 76.5806 71.5163 73.9292 76.1484 74.6762L162.257 88.5625C168.377 89.5494 172.042 95.9133 169.825 101.702L142.819 172.203C142.478 173.094 141.544 173.608 140.61 173.42L140.535 173.405C140.46 173.392 140.382 173.376 140.301 173.358L138.174 172.931C139.05 173.026 139.741 173.236 140.301 173.358L140.535 173.405C141.182 173.521 141.64 173.458 142.012 172.838C142.18 172.557 142.207 172.219 142.167 171.894L134.308 108.492C133.238 99.8582 126.589 92.972 117.998 91.6003L64.6504 83.0822Z" fill="white"/>
<path d="M64.6504 83.0822L65.4082 80.9917C67.0073 76.5806 71.5163 73.9292 76.1484 74.6762L162.257 88.5625C168.377 89.5494 172.042 95.9133 169.825 101.702L142.819 172.203C142.478 173.094 141.544 173.608 140.61 173.42L138.174 172.931C140.258 173.156 141.296 174.033 142.012 172.838C142.18 172.557 142.207 172.219 142.167 171.894L134.308 108.492C133.238 99.8582 126.589 92.972 117.998 91.6003L64.6504 83.0822Z" stroke="black" stroke-linecap="round"/>
<path d="M167.493 92.7769C170.443 95.9127 172.778 104.701 171.097 109.128L149.023 168.207C147.797 171.49 145.594 175.13 142.148 174.49C141.642 174.396 141.213 174.273 140.887 174.202C140.942 174.14 140.861 173.007 141.344 171.337L142.355 168.507L167.716 101.699C168.87 98.6572 168.681 95.4829 167.493 92.7769Z" fill="black"/>
<path d="M106.542 25.895C123.888 26.1999 134.534 41.239 134.143 63.4575C133.788 83.6752 123.607 100.876 104.37 100.538C85.8214 100.212 76.408 83.5094 76.7726 62.7651C77.1447 41.5996 88.1641 25.572 106.542 25.895ZM105.716 38.6258C95.0678 38.4387 90.251 48.5713 90.003 62.6816C89.755 76.7919 94.6329 87.6217 105.11 87.8058C116.445 88.0051 120.687 76.3876 120.915 63.4356C121.155 49.7465 116.794 38.8205 105.716 38.6258Z" fill="black"/>
<path d="M55.0894 81.7597L54.8652 79.3818C54.039 70.6199 47.4075 63.4828 38.7392 61.9618C32.3269 60.8367 26.5853 66.1721 27.2959 72.6434L35.7608 149.723C35.9947 151.852 37.5885 153.581 39.6918 153.986L139.557 173.238C140.859 173.489 142.027 172.399 141.867 171.083L134.24 108.521C133.183 99.8481 126.497 92.9312 117.865 91.5808L55.0894 81.7597Z" fill="white" stroke="black" stroke-linecap="round"/>
<path d="M63.4196 138.454C64.2031 133.98 66.4707 130.269 69.845 127.939C73.2194 125.608 77.4972 124.799 81.9668 125.645C86.4365 126.492 90.8287 128.943 94.4127 132.591C97.9968 136.239 100.557 140.864 101.667 145.697" stroke="black" stroke-linecap="round" stroke-linejoin="round"/>
<path d="M67.8716 103.449L60.1265 110.496" stroke="black" stroke-linecap="round" stroke-linejoin="round"/>
<path d="M59.834 101.935L68.1655 112.01" stroke="black" stroke-linecap="round" stroke-linejoin="round"/>
<path d="M102.731 110.059L94.9868 117.09" stroke="black" stroke-linecap="round" stroke-linejoin="round"/>
<path d="M94.6934 108.53L103.024 118.62" stroke="black" stroke-linecap="round" stroke-linejoin="round"/>
</svg>
