<svg width="100" height="78" viewBox="0 0 100 78" fill="none" xmlns="http://www.w3.org/2000/svg">
<path d="M35.3916 10.3377L89.7579 19.1046C95.0394 19.9563 98.2025 25.4482 96.2887 30.4439L78.9942 75.591C78.846 75.978 78.5679 76.2827 78.2253 76.469C77.9557 76.7837 77.6176 76.7584 77.1425 76.651C77.1243 76.648 77.1061 76.6447 77.0879 76.641L75.7496 76.3725C76.3188 76.4338 76.7722 76.5674 77.1425 76.651C77.5243 76.7148 77.9033 76.6442 78.2253 76.469C78.2465 76.4443 78.2673 76.4175 78.2876 76.3884C78.4498 76.1572 78.4664 75.8597 78.4317 75.5794L73.4827 35.6546C72.5591 28.2041 66.8211 22.2617 59.4075 21.078L26.1553 15.7688C27.5305 11.9754 31.4081 9.69529 35.3916 10.3377Z" fill="white" stroke="black" stroke-width="0.843087" stroke-linecap="round"/>
<path d="M95.5272 22.3047C97.5167 24.4198 98.3017 27.5943 97.1683 30.5801L80.0464 75.6832C79.8681 76.1528 79.5193 76.5121 79.0948 76.7125C78.7271 76.9892 78.301 76.9332 77.9393 76.8551L77.9145 76.8499C75.9533 76.452 77.424 76.9001 77.8885 75.2938L78.5706 73.3849L95.6772 28.323C96.4561 26.271 96.3286 24.1299 95.5272 22.3047Z" fill="black" stroke="black" stroke-width="0.843087" stroke-linecap="round"/>
<path d="M19.7062 14.8763L19.5582 13.3068C18.999 7.37653 14.5443 2.55192 8.67735 1.52252C4.33738 0.761031 0.48074 4.37732 0.961767 8.75726L6.59424 60.0431C6.79604 61.8806 8.17145 63.3722 9.98658 63.7221L76.1867 76.4832C77.3099 76.6997 78.3181 75.7589 78.1797 74.6235L73.4332 35.6892C72.5207 28.2049 66.7506 22.236 59.3015 21.0706L19.7062 14.8763Z" fill="white" stroke="black" stroke-width="0.843087" stroke-linecap="round"/>
</svg>
