<svg width="17" height="15" viewBox="0 0 17 15" fill="none" xmlns="http://www.w3.org/2000/svg">
<path fill-rule="evenodd" clip-rule="evenodd" d="M11.7487 0.0834968C12.1352 0.0834968 12.4486 0.396862 12.4486 0.783417V12.3921L14.7533 10.0874C15.0267 9.81405 15.4698 9.81405 15.7432 10.0874C16.0165 10.3607 16.0165 10.8039 15.7432 11.0772L12.2436 14.5768C11.9702 14.8502 11.5271 14.8502 11.2537 14.5768L7.75413 11.0772C7.4808 10.8039 7.4808 10.3607 7.75413 10.0874C8.02747 9.81405 8.47063 9.81405 8.74397 10.0874L11.0487 12.3921V0.783417C11.0487 0.396862 11.3621 0.0834968 11.7487 0.0834968Z" fill="#797676"/>
<path fill-rule="evenodd" clip-rule="evenodd" d="M4.28284 14.7818C3.89628 14.7818 3.58292 14.4685 3.58292 14.0819L3.58292 2.47317L1.27815 4.77794C1.00482 5.05127 0.561651 5.05127 0.288315 4.77794C0.0149789 4.5046 0.0149789 4.06144 0.288315 3.7881L3.78792 0.288498C4.06125 0.0151622 4.50442 0.0151622 4.77776 0.288498L8.27736 3.7881C8.55069 4.06144 8.55069 4.5046 8.27736 4.77794C8.00402 5.05127 7.56086 5.05127 7.28752 4.77794L4.98276 2.47317L4.98276 14.0819C4.98276 14.4685 4.66939 14.7818 4.28284 14.7818Z" fill="#797676"/>
<path fill-rule="evenodd" clip-rule="evenodd" d="M11.7487 0.0834968C12.1352 0.0834968 12.4486 0.396862 12.4486 0.783417V12.3921L14.7533 10.0874C15.0267 9.81405 15.4698 9.81405 15.7432 10.0874C16.0165 10.3607 16.0165 10.8039 15.7432 11.0772L12.2436 14.5768C11.9702 14.8502 11.5271 14.8502 11.2537 14.5768L7.75413 11.0772C7.4808 10.8039 7.4808 10.3607 7.75413 10.0874C8.02747 9.81405 8.47063 9.81405 8.74397 10.0874L11.0487 12.3921V0.783417C11.0487 0.396862 11.3621 0.0834968 11.7487 0.0834968Z" stroke="#797676" stroke-width="0.166667" stroke-linecap="round" stroke-linejoin="round"/>
<path fill-rule="evenodd" clip-rule="evenodd" d="M4.28284 14.7818C3.89628 14.7818 3.58292 14.4685 3.58292 14.0819L3.58292 2.47317L1.27815 4.77794C1.00482 5.05127 0.561651 5.05127 0.288315 4.77794C0.0149789 4.5046 0.0149789 4.06144 0.288315 3.7881L3.78792 0.288498C4.06125 0.0151622 4.50442 0.0151622 4.77776 0.288498L8.27736 3.7881C8.55069 4.06144 8.55069 4.5046 8.27736 4.77794C8.00402 5.05127 7.56086 5.05127 7.28752 4.77794L4.98276 2.47317L4.98276 14.0819C4.98276 14.4685 4.66939 14.7818 4.28284 14.7818Z" stroke="#797676" stroke-width="0.166667" stroke-linecap="round" stroke-linejoin="round"/>
</svg>
